# Blender v2.90.1 OBJ File: 'menger sponge.blend'
# www.blender.org
mtllib menger sponge.mtl
o Sponge
v -1.000000 -1.000000 1.000000
v -0.333333 -1.000000 1.000000
v -0.333333 -0.333333 1.000000
v -1.000000 -0.333333 1.000000
v -1.000000 -1.000000 0.333333
v -0.333333 -1.000000 0.333333
v -0.333333 -0.333333 0.333333
v -1.000000 -0.333333 0.333333
v -0.333333 0.333333 1.000000
v -1.000000 0.333333 1.000000
v -0.333333 0.333333 0.333333
v -1.000000 0.333333 0.333333
v -0.333333 1.000000 1.000000
v -1.000000 1.000000 1.000000
v -0.333333 1.000000 0.333333
v -1.000000 1.000000 0.333333
v -1.000000 -1.000000 -0.333333
v -0.333333 -1.000000 -0.333333
v -0.333333 -0.333333 -0.333333
v -1.000000 -0.333333 -0.333333
v -1.000000 0.333333 -0.333333
v -0.333333 0.333333 -0.333333
v -0.333333 1.000000 -0.333333
v -1.000000 1.000000 -0.333333
v -1.000000 -1.000000 -1.000000
v -0.333333 -1.000000 -1.000000
v -0.333333 -0.333333 -1.000000
v -1.000000 -0.333333 -1.000000
v -0.333333 0.333333 -1.000000
v -1.000000 0.333333 -1.000000
v -0.333333 1.000000 -1.000000
v -1.000000 1.000000 -1.000000
v 0.333333 -1.000000 1.000000
v 0.333333 -0.333333 1.000000
v 0.333333 -1.000000 0.333333
v 0.333333 -0.333333 0.333333
v 0.333333 0.333333 1.000000
v 0.333333 1.000000 1.000000
v 0.333333 0.333333 0.333333
v 0.333333 1.000000 0.333333
v 0.333333 -1.000000 -0.333333
v 0.333333 -0.333333 -0.333333
v 0.333333 -1.000000 -1.000000
v 0.333333 -0.333333 -1.000000
v 0.333333 0.333333 -0.333333
v 0.333333 1.000000 -0.333333
v 0.333333 0.333333 -1.000000
v 0.333333 1.000000 -1.000000
v 1.000000 -1.000000 1.000000
v 1.000000 -0.333333 1.000000
v 1.000000 -1.000000 0.333333
v 1.000000 -0.333333 0.333333
v 1.000000 0.333333 1.000000
v 1.000000 0.333333 0.333333
v 1.000000 1.000000 1.000000
v 1.000000 1.000000 0.333333
v 1.000000 -1.000000 -0.333333
v 1.000000 -0.333333 -0.333333
v 1.000000 0.333333 -0.333333
v 1.000000 1.000000 -0.333333
v 1.000000 -1.000000 -1.000000
v 1.000000 -0.333333 -1.000000
v 1.000000 0.333333 -1.000000
v 1.000000 1.000000 -1.000000
vt 0.000000 0.000000
vt 0.000000 1.000000
vt 1.000000 1.000000
vt 1.000000 0.000000
vt 0.000000 0.000000
vt 0.000000 1.000000
vt 1.000000 1.000000
vt 0.000000 0.000000
vt 0.000000 1.000000
vt 1.000000 1.000000
vt 0.000000 0.000000
vt 0.000000 1.000000
vt 1.000000 1.000000
vt 1.000000 0.000000
vt 0.000000 0.000000
vt 0.000000 1.000000
vt 1.000000 1.000000
vt 1.000000 0.000000
vt 0.000000 0.000000
vt 0.000000 1.000000
vt 1.000000 1.000000
vt 0.000000 0.000000
vt 1.000000 1.000000
vt 1.000000 0.000000
vt 0.000000 0.000000
vt 0.000000 1.000000
vt 1.000000 1.000000
vt 1.000000 0.000000
vt 0.000000 0.000000
vt 0.000000 1.000000
vt 1.000000 1.000000
vt 0.000000 0.000000
vt 0.000000 1.000000
vt 1.000000 1.000000
vt 1.000000 0.000000
vt 0.000000 0.000000
vt 0.000000 1.000000
vt 1.000000 1.000000
vt 1.000000 0.000000
vt 0.000000 0.000000
vt 0.000000 1.000000
vt 1.000000 0.000000
vt 0.000000 0.000000
vt 0.000000 1.000000
vt 1.000000 1.000000
vt 1.000000 1.000000
vt 0.000000 0.000000
vt 0.000000 1.000000
vt 1.000000 1.000000
vt 1.000000 0.000000
vt 0.000000 0.000000
vt 0.000000 1.000000
vt 1.000000 1.000000
vt 1.000000 0.000000
vt 0.000000 0.000000
vt 0.000000 1.000000
vt 1.000000 1.000000
vt 0.000000 0.000000
vt 1.000000 1.000000
vt 1.000000 0.000000
vt 0.000000 0.000000
vt 0.000000 1.000000
vt 1.000000 1.000000
vt 1.000000 0.000000
vt 0.000000 0.000000
vt 0.000000 1.000000
vt 1.000000 1.000000
vt 1.000000 0.000000
vt 0.000000 0.000000
vt 0.000000 1.000000
vt 1.000000 1.000000
vt 0.000000 1.000000
vt 1.000000 1.000000
vt 1.000000 0.000000
vt 0.000000 0.000000
vt 0.000000 1.000000
vt 1.000000 1.000000
vt 1.000000 0.000000
vt 0.000000 0.000000
vt 0.000000 0.000000
vt 1.000000 1.000000
vt 1.000000 0.000000
vt 0.000000 0.000000
vt 0.000000 1.000000
vt 1.000000 1.000000
vt 1.000000 0.000000
vt 0.000000 0.000000
vt 0.000000 1.000000
vt 1.000000 1.000000
vt 1.000000 0.000000
vt 0.000000 0.000000
vt 1.000000 1.000000
vt 1.000000 0.000000
vt 0.000000 0.000000
vt 0.000000 1.000000
vt 1.000000 1.000000
vt 1.000000 0.000000
vt 0.000000 1.000000
vt 1.000000 1.000000
vt 0.000000 0.000000
vt 0.000000 1.000000
vt 1.000000 1.000000
vt 0.000000 0.000000
vt 0.000000 0.000000
vt 0.000000 1.000000
vt 1.000000 1.000000
vt 1.000000 0.000000
vt 0.000000 1.000000
vt 1.000000 1.000000
vt 0.000000 0.000000
vt 0.000000 1.000000
vt 1.000000 1.000000
vt 0.000000 0.000000
vt 1.000000 0.000000
vt 0.000000 0.000000
vt 0.000000 1.000000
vt 1.000000 1.000000
vt 1.000000 0.000000
vt 0.000000 1.000000
vt 1.000000 1.000000
vt 1.000000 0.000000
vt 0.000000 0.000000
vt 0.000000 1.000000
vt 1.000000 1.000000
vt 0.000000 0.000000
vt 0.000000 0.000000
vt 0.000000 1.000000
vt 1.000000 1.000000
vt 1.000000 0.000000
vt 0.000000 0.000000
vt 0.000000 1.000000
vt 1.000000 1.000000
vt 1.000000 0.000000
vt 0.000000 0.000000
vt 0.000000 1.000000
vt 1.000000 1.000000
vt 0.000000 0.000000
vt 1.000000 1.000000
vt 1.000000 0.000000
vt 0.000000 0.000000
vt 0.000000 1.000000
vt 1.000000 1.000000
vt 1.000000 0.000000
vt 0.000000 0.000000
vt 0.000000 1.000000
vt 1.000000 1.000000
vt 1.000000 0.000000
vt 0.000000 0.000000
vt 0.000000 1.000000
vt 1.000000 1.000000
vt 1.000000 1.000000
vt 1.000000 0.000000
vt 0.000000 0.000000
vt 0.000000 1.000000
vt 1.000000 1.000000
vt 1.000000 0.000000
vt 0.000000 0.000000
vt 0.000000 1.000000
vt 0.000000 0.000000
vt 1.000000 1.000000
vt 1.000000 0.000000
vt 0.000000 0.000000
vt 0.000000 1.000000
vt 1.000000 1.000000
vt 1.000000 0.000000
vt 0.000000 0.000000
vt 0.000000 1.000000
vt 1.000000 1.000000
vt 1.000000 0.000000
vt 0.000000 0.000000
vt 1.000000 1.000000
vt 1.000000 0.000000
vt 0.000000 0.000000
vt 1.000000 0.000000
vt 0.000000 0.000000
vt 0.000000 1.000000
vt 1.000000 0.000000
vt 0.000000 1.000000
vt 1.000000 1.000000
vt 1.000000 1.000000
vt 0.000000 0.000000
vt 1.000000 0.000000
vt 0.000000 0.000000
vt 0.000000 1.000000
vt 1.000000 1.000000
vt 1.000000 0.000000
vt 0.000000 1.000000
vt 1.000000 1.000000
vt 0.000000 0.000000
vt 1.000000 1.000000
vt 1.000000 0.000000
vt 0.000000 0.000000
vt 0.000000 1.000000
vt 1.000000 1.000000
vt 1.000000 0.000000
vt 0.000000 0.000000
vt 1.000000 1.000000
vt 1.000000 0.000000
vt 0.000000 0.000000
vt 0.000000 1.000000
vt 1.000000 1.000000
vt 1.000000 0.000000
vt 1.000000 1.000000
vt 1.000000 0.000000
vt 0.000000 0.000000
vt 0.000000 1.000000
vt 1.000000 1.000000
vt 1.000000 0.000000
vt 0.000000 0.000000
vt 0.000000 0.000000
vt 1.000000 1.000000
vt 1.000000 0.000000
vt 0.000000 0.000000
vt 0.000000 1.000000
vt 1.000000 1.000000
vt 1.000000 0.000000
vt 0.000000 0.000000
vt 1.000000 1.000000
vt 1.000000 0.000000
vt 0.000000 0.000000
vt 1.000000 1.000000
vt 1.000000 0.000000
vn -1.0000 0.0000 0.0000
vn 0.0000 0.0000 1.0000
vn 0.0000 -1.0000 0.0000
vn 1.0000 0.0000 0.0000
vn 0.0000 0.0000 -1.0000
vn 0.0000 1.0000 0.0000
usemtl None
s off
f 4/1/1 8/2/1 5/3/1 1/4/1
f 2/5/2 3/6/2 4/7/2 1/4/2
f 5/8/3 6/9/3 2/10/3 1/4/3
f 10/11/1 12/12/1 8/13/1 4/14/1
f 7/15/4 11/16/4 9/17/4 3/18/4
f 3/19/2 9/20/2 10/21/2 4/14/2
f 12/22/5 11/16/5 7/23/5 8/24/5
f 14/25/1 16/26/1 12/27/1 10/28/1
f 9/29/2 13/30/2 14/31/2 10/28/2
f 13/32/6 15/33/6 16/34/6 14/35/6
f 8/36/1 20/37/1 17/38/1 5/39/1
f 18/40/4 19/41/4 7/23/4 6/42/4
f 17/43/3 18/44/3 6/45/3 5/39/3
f 7/15/6 19/41/6 20/46/6 8/24/6
f 16/47/1 24/48/1 21/49/1 12/50/1
f 22/51/4 23/52/4 15/53/4 11/54/4
f 21/55/3 22/56/3 11/57/3 12/50/3
f 15/58/6 23/52/6 24/59/6 16/60/6
f 20/61/1 28/62/1 25/63/1 17/64/1
f 28/65/5 27/66/5 26/67/5 25/68/5
f 25/69/3 26/70/3 18/71/3 17/64/3
f 21/55/1 30/72/1 28/73/1 20/74/1
f 27/75/4 29/76/4 22/77/4 19/78/4
f 19/79/2 22/56/2 21/49/2 20/74/2
f 30/80/5 29/76/5 27/81/5 28/82/5
f 24/83/1 32/84/1 30/85/1 21/86/1
f 32/87/5 31/88/5 29/89/5 30/90/5
f 23/91/6 31/88/6 32/92/6 24/93/6
f 33/94/2 34/95/2 3/96/2 2/97/2
f 7/15/5 36/98/5 35/99/5 6/42/5
f 6/100/3 35/101/3 33/102/3 2/97/3
f 34/103/6 36/98/6 7/23/6 3/18/6
f 37/104/2 38/105/2 13/106/2 9/107/2
f 15/58/5 40/108/5 39/109/5 11/54/5
f 11/110/3 39/111/3 37/112/3 9/107/3
f 38/113/6 40/108/6 15/53/6 13/114/6
f 41/115/2 42/116/2 19/117/2 18/118/2
f 27/75/5 44/119/5 43/120/5 26/121/5
f 26/122/3 43/123/3 41/124/3 18/118/3
f 42/125/6 44/119/6 27/81/6 19/78/6
f 45/126/2 46/127/2 23/128/2 22/129/2
f 31/130/5 48/131/5 47/132/5 29/133/5
f 29/134/3 47/135/3 45/136/3 22/129/3
f 46/137/6 48/131/6 31/138/6 23/139/6
f 51/140/4 52/141/4 50/142/4 49/143/4
f 49/144/2 50/145/2 34/146/2 33/147/2
f 35/148/3 51/149/3 49/150/3 33/147/3
f 37/104/1 39/111/1 36/151/1 34/152/1
f 52/153/4 54/154/4 53/155/4 50/156/4
f 50/157/2 53/158/2 37/112/2 34/152/2
f 39/159/5 54/154/5 52/160/5 36/161/5
f 54/162/4 56/163/4 55/164/4 53/165/4
f 53/166/2 55/167/2 38/168/2 37/169/2
f 55/170/6 56/163/6 40/171/6 38/172/6
f 36/173/1 42/116/1 41/124/1 35/174/1
f 57/175/4 58/176/4 52/160/4 51/177/4
f 41/115/3 57/178/3 51/179/3 35/174/3
f 52/153/6 58/176/6 42/180/6 36/161/6
f 40/181/1 46/127/1 45/136/1 39/182/1
f 59/183/4 60/184/4 56/185/4 54/186/4
f 45/126/3 59/187/3 54/188/3 39/182/3
f 56/189/6 60/184/6 46/190/6 40/191/6
f 61/192/4 62/193/4 58/194/4 57/195/4
f 44/196/5 62/193/5 61/197/5 43/198/5
f 43/199/3 61/200/3 57/201/3 41/202/3
f 45/126/1 47/135/1 44/203/1 42/204/1
f 62/205/4 63/206/4 59/207/4 58/208/4
f 58/209/2 59/187/2 45/136/2 42/204/2
f 47/210/5 63/206/5 62/211/5 44/212/5
f 63/213/4 64/214/4 60/215/4 59/216/4
f 48/217/5 64/214/5 63/218/5 47/219/5
f 60/220/6 64/214/6 48/221/6 46/222/6
